<?xml version="1.0" standalone="no"?>
<!DOCTYPE svg PUBLIC "-//W3C//DTD SVG 20010904//EN"
 "http://www.w3.org/TR/2001/REC-SVG-20010904/DTD/svg10.dtd">
<svg version="1.0" xmlns="http://www.w3.org/2000/svg"
 width="814.000000pt" height="616.000000pt" viewBox="0 0 814.000000 616.000000"
 preserveAspectRatio="xMidYMid meet">
<metadata>
Created by potrace 1.13, written by Peter Selinger 2001-2015
</metadata>
<g transform="translate(0.000000,616.000000) scale(0.100000,-0.100000)"
fill="#000000" stroke="none">
<path d="M523 6045 c-201 -55 -366 -244 -435 -500 -31 -115 -31 -355 0 -470
50 -183 -15 -95 1836 -2523 948 -1244 1740 -2283 1761 -2307 46 -56 144 -127
215 -155 155 -61 341 -24 478 96 34 30 665 850 1775 2308 948 1243 1738 2282
1756 2309 48 70 98 182 122 272 17 61 22 111 23 210 1 123 -1 134 -30 206 -73
181 -247 375 -473 528 l-60 41 -3458 -1 c-2943 0 -3466 -2 -3510 -14z"/>
</g>
</svg>
