<?xml version="1.0" standalone="no"?>
<!DOCTYPE svg PUBLIC "-//W3C//DTD SVG 20010904//EN"
 "http://www.w3.org/TR/2001/REC-SVG-20010904/DTD/svg10.dtd">
<svg version="1.0" xmlns="http://www.w3.org/2000/svg"
 width="641.000000pt" height="1012.000000pt" viewBox="0 0 641.000000 1012.000000"
 preserveAspectRatio="xMidYMid meet">
<metadata>
Created by potrace 1.13, written by Peter Selinger 2001-2015
</metadata>
<g transform="translate(0.000000,1012.000000) scale(0.100000,-0.100000)"
fill="#000000" stroke="none">
<path d="M1429 10046 c-69 -20 -148 -59 -205 -102 -80 -61 -974 -1004 -1013
-1068 -124 -206 -124 -475 0 -682 22 -36 526 -572 1443 -1532 774 -813 1430
-1500 1458 -1528 l49 -51 -1463 -1532 c-913 -956 -1481 -1559 -1510 -1602 -91
-133 -126 -316 -94 -479 27 -135 81 -233 195 -353 476 -506 880 -921 926 -952
30 -19 85 -48 122 -63 62 -24 80 -26 203 -27 124 0 140 2 198 26 148 63 62
-24 2296 2314 1166 1220 2136 2237 2155 2260 48 57 108 187 127 275 34 160 -3
356 -94 489 -30 44 -809 867 -2133 2253 -1147 1201 -2109 2204 -2138 2230 -60
54 -149 101 -236 123 -71 18 -221 18 -286 1z"/>
</g>
</svg>
