<?xml version="1.0" standalone="no"?>
<!DOCTYPE svg PUBLIC "-//W3C//DTD SVG 20010904//EN"
 "http://www.w3.org/TR/2001/REC-SVG-20010904/DTD/svg10.dtd">
<svg version="1.0" xmlns="http://www.w3.org/2000/svg"
 width="675.000000pt" height="429.000000pt" viewBox="0 0 675.000000 429.000000"
 preserveAspectRatio="xMidYMid meet">
<metadata>
Created by potrace 1.13, written by Peter Selinger 2001-2015
</metadata>
<g transform="translate(0.000000,429.000000) scale(0.100000,-0.100000)"
fill="#000000" stroke="none">
<path d="M5827 4249 c-116 -19 -75 20 -1307 -1234 -635 -646 -1157 -1175
-1160 -1175 -3 0 -520 525 -1150 1166 -1291 1314 -1196 1228 -1350 1228 -137
0 -158 -16 -486 -346 -260 -261 -283 -288 -304 -343 -18 -49 -21 -75 -18 -140
7 -133 17 -146 372 -505 172 -173 798 -808 1390 -1410 1427 -1449 1348 -1372
1421 -1399 48 -18 76 -22 140 -19 150 6 19 -116 1715 1604 839 851 1535 1561
1547 1579 38 57 56 129 51 208 -9 124 -21 141 -322 445 -149 151 -290 285
-313 298 -68 41 -149 56 -226 43z"/>
</g>
</svg>
