<?xml version="1.0" standalone="no"?>
<!DOCTYPE svg PUBLIC "-//W3C//DTD SVG 20010904//EN"
 "http://www.w3.org/TR/2001/REC-SVG-20010904/DTD/svg10.dtd">
<svg version="1.0" xmlns="http://www.w3.org/2000/svg"
 width="677.000000pt" height="429.000000pt" viewBox="0 0 677.000000 429.000000"
 preserveAspectRatio="xMidYMid meet">
<metadata>
Created by potrace 1.13, written by Peter Selinger 2001-2015
</metadata>
<g transform="translate(0.000000,429.000000) scale(0.100000,-0.100000)"
fill="#000000" stroke="none">
<path d="M3250 4208 c-67 -26 -12 29 -1446 -1428 -598 -608 -1219 -1238 -1380
-1400 -345 -348 -349 -354 -349 -500 0 -146 2 -148 323 -472 178 -179 291
-285 322 -302 101 -55 225 -54 324 2 31 18 431 418 1187 1187 627 638 1143
1161 1147 1163 4 1 432 -430 952 -959 520 -528 1044 -1061 1165 -1184 204
-207 224 -225 280 -245 80 -29 171 -29 250 0 56 21 80 42 346 309 318 318 328
332 337 458 5 80 -13 151 -52 209 -12 18 -708 728 -1546 1579 -1703 1727
-1565 1598 -1720 1602 -68 2 -96 -2 -140 -19z"/>
</g>
</svg>
