<?xml version="1.0" standalone="no"?>
<!DOCTYPE svg PUBLIC "-//W3C//DTD SVG 20010904//EN"
 "http://www.w3.org/TR/2001/REC-SVG-20010904/DTD/svg10.dtd">
<svg version="1.0" xmlns="http://www.w3.org/2000/svg"
 width="641.000000pt" height="1012.000000pt" viewBox="0 0 641.000000 1012.000000"
 preserveAspectRatio="xMidYMid meet">
<metadata>
Created by potrace 1.13, written by Peter Selinger 2001-2015
</metadata>
<g transform="translate(0.000000,1012.000000) scale(0.100000,-0.100000)"
fill="#000000" stroke="none">
<path d="M4723 10035 c-56 -16 -111 -41 -182 -84 -26 -16 -866 -887 -2165
-2246 -1166 -1220 -2136 -2237 -2155 -2260 -48 -57 -108 -187 -127 -275 -34
-160 3 -356 94 -489 30 -44 807 -865 2128 -2248 1144 -1198 2106 -2202 2138
-2230 102 -93 235 -143 384 -143 136 0 240 35 348 116 79 60 974 1004 1013
1068 124 206 124 475 0 682 -22 36 -528 574 -1443 1532 -774 813 -1430 1500
-1458 1528 l-49 51 1463 1532 c913 956 1481 1559 1510 1602 91 133 126 316 94
479 -27 135 -81 233 -195 353 -476 506 -880 921 -926 952 -98 64 -175 88 -305
91 -80 3 -131 -1 -167 -11z"/>
</g>
</svg>
