<?xml version="1.0" standalone="no"?>
<!DOCTYPE svg PUBLIC "-//W3C//DTD SVG 20010904//EN"
 "http://www.w3.org/TR/2001/REC-SVG-20010904/DTD/svg10.dtd">
<svg version="1.0" xmlns="http://www.w3.org/2000/svg"
 width="902.000000pt" height="897.000000pt" viewBox="0 0 902.000000 897.000000"
 preserveAspectRatio="xMidYMid meet">
<metadata>
Created by potrace 1.13, written by Peter Selinger 2001-2015
</metadata>
<g transform="translate(0.000000,897.000000) scale(0.100000,-0.100000)"
fill="#000000" stroke="none">
<path d="M4130 8909 c-1348 -109 -2571 -827 -3325 -1954 -403 -602 -644 -1270
-727 -2010 -20 -185 -17 -791 5 -970 129 -1033 559 -1926 1273 -2639 983 -984
2364 -1445 3759 -1255 1901 258 3427 1724 3759 3611 53 295 61 398 61 778 0
374 -7 472 -51 745 -199 1218 -911 2310 -1950 2988 -625 408 -1335 648 -2088
707 -150 12 -564 11 -716 -1z m-270 -1826 c76 -19 172 -65 244 -117 82 -59
210 -193 279 -292 60 -85 70 -94 117 -94 47 0 57 9 117 94 105 151 262 296
388 358 260 130 602 82 917 -128 340 -226 573 -599 595 -954 10 -162 -33 -323
-117 -440 -64 -89 -73 -114 -56 -154 27 -65 30 -66 337 -66 182 0 288 -4 310
-12 53 -17 87 -46 112 -91 21 -40 22 -52 22 -302 0 -297 -4 -313 -84 -370 -38
-26 -50 -29 -139 -33 -53 -2 -110 -8 -126 -14 -58 -23 -56 30 -56 -1268 0
-1049 -2 -1195 -15 -1227 -20 -48 -41 -71 -87 -94 -36 -18 -96 -19 -2118 -19
-2022 0 -2082 1 -2118 19 -46 23 -67 46 -87 94 -13 32 -15 179 -15 1232 0
1306 3 1240 -57 1263 -15 6 -72 12 -125 14 -89 4 -101 7 -139 33 -80 57 -84
73 -84 370 0 250 1 262 22 302 25 45 59 74 112 91 22 8 127 12 307 12 l274 0
30 28 c53 47 50 83 -14 181 -128 195 -156 392 -92 646 33 126 123 310 210 425
293 389 774 606 1136 513z"/>
<path d="M3608 6286 c-63 -23 -135 -75 -201 -146 -58 -62 -117 -160 -117 -192
0 -18 61 -76 123 -118 102 -68 374 -180 439 -180 50 0 88 32 88 75 0 93 -162
428 -256 532 -39 42 -39 42 -76 29z"/>
<path d="M5295 6242 c-50 -62 -168 -294 -209 -410 -26 -73 -32 -116 -20 -147
7 -18 55 -45 79 -45 32 0 272 102 367 156 113 64 198 128 198 150 0 69 -163
263 -265 316 -91 46 -97 46 -150 -20z"/>
<path d="M3121 4454 l-31 -26 0 -854 0 -855 24 -24 c13 -13 39 -26 57 -30 19
-3 222 -5 451 -3 l418 3 27 28 28 27 3 826 c2 558 -1 838 -8 865 -19 70 -13
69 -504 69 l-434 0 -31 -26z"/>
<path d="M4948 4464 c-18 -9 -31 -28 -38 -54 -7 -26 -10 -307 -8 -864 l3 -826
28 -27 27 -28 418 -3 c229 -2 432 0 451 3 18 4 44 17 57 30 l24 24 0 855 0
854 -31 26 -31 26 -436 0 c-366 -1 -441 -3 -464 -16z"/>
</g>
</svg>
