<?xml version="1.0" standalone="no"?>
<!DOCTYPE svg PUBLIC "-//W3C//DTD SVG 20010904//EN"
 "http://www.w3.org/TR/2001/REC-SVG-20010904/DTD/svg10.dtd">
<svg version="1.0" xmlns="http://www.w3.org/2000/svg"
 width="642.000000pt" height="829.000000pt" viewBox="0 0 642.000000 829.000000"
 preserveAspectRatio="xMidYMid meet">
<metadata>
Created by potrace 1.13, written by Peter Selinger 2001-2015
</metadata>
<g transform="translate(0.000000,829.000000) scale(0.100000,-0.100000)"
fill="#000000" stroke="none">
<path d="M3060 8194 c-235 -16 -477 -55 -675 -111 -992 -277 -1778 -1025
-2099 -1996 -246 -746 -191 -1567 167 -2452 368 -913 1005 -1836 1948 -2825
199 -209 589 -583 650 -624 50 -33 95 -46 164 -46 93 0 143 22 232 102 537
486 1094 1096 1533 1679 1026 1365 1459 2627 1274 3719 -227 1342 -1310 2370
-2669 2534 -123 15 -427 27 -525 20z m365 -1525 c416 -49 826 -306 1060 -664
237 -362 310 -786 206 -1199 -146 -577 -621 -1015 -1216 -1122 -136 -24 -384
-24 -520 0 -839 150 -1393 946 -1234 1774 103 536 502 987 1019 1150 238 75
428 92 685 61z"/>
</g>
</svg>
