<?xml version="1.0" standalone="no"?>
<!DOCTYPE svg PUBLIC "-//W3C//DTD SVG 20010904//EN"
 "http://www.w3.org/TR/2001/REC-SVG-20010904/DTD/svg10.dtd">
<svg version="1.0" xmlns="http://www.w3.org/2000/svg"
 width="934.000000pt" height="534.000000pt" viewBox="0 0 934.000000 534.000000"
 preserveAspectRatio="xMidYMid meet">
<metadata>
Created by potrace 1.13, written by Peter Selinger 2001-2015
</metadata>
<g transform="translate(0.000000,534.000000) scale(0.100000,-0.100000)"
fill="#000000" stroke="none">
<path d="M4420 5230 c-570 -55 -1078 -255 -1504 -594 -443 -352 -767 -851
-896 -1378 -56 -228 -65 -311 -65 -588 0 -270 9 -358 60 -575 169 -724 688
-1360 1390 -1705 409 -201 794 -290 1255 -290 204 0 342 12 526 46 721 132
1367 554 1771 1156 84 127 213 382 268 533 47 127 97 327 121 480 26 166 26
541 0 703 -50 322 -156 622 -315 895 -415 708 -1155 1189 -2007 1302 -143 19
-473 27 -604 15z m470 -764 c329 -41 608 -145 880 -326 174 -116 383 -325 496
-495 167 -251 258 -497 295 -795 16 -129 6 -366 -21 -504 -141 -723 -730
-1299 -1482 -1450 -668 -135 -1353 76 -1815 557 -239 249 -396 550 -465 889
-20 98 -23 142 -22 333 0 189 3 235 23 325 118 554 469 1006 981 1263 358 180
749 250 1130 203z"/>
<path d="M4486 4170 c-204 -24 -376 -74 -561 -166 -454 -224 -762 -630 -840
-1109 -20 -119 -19 -346 1 -466 19 -116 79 -300 132 -406 212 -421 621 -728
1112 -835 92 -19 133 -22 330 -22 194 0 239 3 325 22 330 72 601 217 825 442
220 219 358 472 417 767 25 125 25 425 0 543 -134 628 -639 1103 -1292 1215
-111 19 -344 27 -449 15z"/>
<path d="M938 5060 c-188 -33 -368 -172 -523 -404 -132 -198 -269 -512 -310
-710 -8 -42 -15 -119 -15 -173 0 -387 268 -697 682 -787 l98 -21 0 -35 c0 -53
-24 -309 -95 -1035 -118 -1203 -121 -1255 -76 -1395 31 -97 76 -152 158 -192
62 -30 75 -33 158 -33 70 1 101 6 136 22 96 43 159 126 188 248 27 109 13 319
-84 1295 -43 426 -105 1090 -105 1117 0 7 10 13 23 13 13 0 60 9 106 21 325
82 550 290 632 584 34 119 31 294 -5 430 -56 206 -176 471 -298 655 -77 117
-229 271 -318 323 -110 64 -250 94 -352 77z"/>
<path d="M7644 5015 c-80 -48 -75 17 -72 -950 l3 -860 34 -69 c44 -91 123
-169 215 -212 92 -43 151 -54 302 -54 93 0 124 -3 124 -12 0 -23 -39 -429 -95
-993 -101 -1016 -110 -1167 -85 -1290 37 -178 152 -279 320 -279 222 -1 349
152 350 422 0 98 -28 419 -105 1202 -35 360 -70 721 -78 803 l-13 147 129 0
c155 0 243 18 324 66 118 71 198 177 223 297 7 35 10 314 8 879 -3 817 -3 827
-24 854 -36 49 -70 67 -132 72 -73 5 -130 -21 -163 -75 l-24 -38 -5 -727 c-5
-711 -5 -727 -25 -754 -27 -36 -82 -64 -124 -64 -49 0 -113 34 -136 72 -19 32
-20 58 -25 760 -5 714 -5 727 -26 754 -36 49 -70 67 -132 72 -73 5 -130 -21
-163 -75 l-24 -38 -5 -727 c-5 -715 -5 -727 -26 -755 -63 -86 -190 -81 -258
11 -21 27 -21 40 -26 756 -5 720 -5 729 -26 757 -57 76 -158 97 -240 48z"/>
</g>
</svg>
