<?xml version="1.0" standalone="no"?>
<!DOCTYPE svg PUBLIC "-//W3C//DTD SVG 20010904//EN"
 "http://www.w3.org/TR/2001/REC-SVG-20010904/DTD/svg10.dtd">
<svg version="1.0" xmlns="http://www.w3.org/2000/svg"
 width="693.000000pt" height="608.000000pt" viewBox="0 0 693.000000 608.000000"
 preserveAspectRatio="xMidYMid meet">
<metadata>
Created by potrace 1.13, written by Peter Selinger 2001-2015
</metadata>
<g transform="translate(0.000000,608.000000) scale(0.100000,-0.100000)"
fill="#000000" stroke="none">
<path d="M5615 6006 c-306 -51 -609 -203 -874 -436 -283 -250 -478 -578 -552
-930 -17 -82 -22 -139 -22 -260 0 -178 16 -271 67 -392 l34 -77 -23 -64 c-70
-203 -344 -469 -704 -687 l-120 -72 -83 55 c-402 268 -608 649 -608 1126 0 95
-5 148 -20 207 -38 149 -123 296 -232 400 -53 52 -1462 1124 -1476 1124 -4 0
-36 -26 -71 -57 l-63 -58 766 -700 766 -699 -82 -83 -83 -83 -145 143 c-353
350 -1331 1297 -1338 1297 -4 0 -36 -29 -71 -64 l-63 -63 742 -724 742 -723
-68 -63 c-38 -34 -72 -62 -76 -63 -3 0 -336 321 -738 713 -402 391 -737 713
-743 715 -7 1 -38 -23 -69 -55 l-56 -58 684 -665 c377 -366 708 -689 736 -718
l52 -52 -79 -80 c-44 -44 -82 -80 -86 -80 -3 0 -327 331 -719 735 l-712 735
-47 -39 c-67 -57 -94 -88 -88 -103 3 -7 268 -335 589 -728 397 -486 603 -730
644 -763 32 -27 100 -68 149 -92 134 -65 220 -84 430 -95 147 -7 202 -15 300
-39 145 -37 320 -120 445 -211 91 -66 286 -258 334 -329 l30 -42 -75 -73 c-41
-40 -515 -502 -1054 -1026 -539 -523 -1006 -979 -1039 -1013 -80 -82 -110
-149 -110 -247 0 -60 6 -87 27 -133 34 -75 128 -169 204 -205 50 -23 71 -27
153 -27 90 0 98 2 157 35 49 28 249 217 935 885 480 467 961 937 1069 1043
l196 192 1064 -1036 c585 -570 1080 -1046 1100 -1059 90 -58 226 -70 322 -27
60 27 140 102 167 157 43 89 43 202 -1 291 -16 34 -292 309 -1135 1130 -691
673 -1112 1090 -1107 1097 26 45 112 167 174 247 189 244 407 423 569 465 40
10 51 9 97 -12 109 -48 199 -65 370 -70 233 -8 412 23 627 108 535 211 988
736 1093 1267 27 137 22 340 -11 466 -93 354 -371 628 -734 723 -120 31 -332
40 -457 19z m-130 -354 c-328 -292 -577 -542 -647 -647 -94 -143 -238 -476
-302 -699 l-24 -81 -11 40 c-26 93 -6 326 44 513 52 196 127 340 239 459 156
168 393 322 604 393 92 31 112 36 97 22z"/>
</g>
</svg>
