<?xml version="1.0" standalone="no"?>
<!DOCTYPE svg PUBLIC "-//W3C//DTD SVG 20010904//EN"
 "http://www.w3.org/TR/2001/REC-SVG-20010904/DTD/svg10.dtd">
<svg version="1.0" xmlns="http://www.w3.org/2000/svg"
 width="773.000000pt" height="770.000000pt" viewBox="0 0 773.000000 770.000000"
 preserveAspectRatio="xMidYMid meet">
<metadata>
Created by potrace 1.13, written by Peter Selinger 2001-2015
</metadata>
<g transform="translate(0.000000,770.000000) scale(0.100000,-0.100000)"
fill="#000000" stroke="none">
<path d="M2890 7604 c-658 -59 -1206 -282 -1691 -688 -569 -475 -931 -1136
-1036 -1887 -21 -156 -24 -564 -5 -719 30 -241 98 -517 178 -722 99 -258 287
-583 461 -798 397 -493 963 -855 1578 -1010 265 -67 420 -85 725 -84 221 0
288 4 405 22 361 56 695 169 1005 341 l125 69 990 -988 c1114 -1112 1015
-1025 1180 -1025 143 0 152 7 488 343 334 335 342 347 342 492 -1 158 76 71
-1032 1180 l-983 986 60 105 c120 211 235 500 294 739 152 617 95 1281 -161
1870 -250 575 -680 1059 -1226 1379 -320 187 -686 314 -1072 371 -135 20 -508
34 -625 24z m535 -1007 c347 -66 634 -194 900 -402 90 -71 268 -250 336 -340
319 -417 461 -946 394 -1459 -105 -799 -684 -1456 -1459 -1656 -193 -50 -323
-63 -556 -57 -230 6 -358 27 -557 92 -125 41 -339 142 -445 211 -488 314 -818
832 -893 1400 -50 382 11 770 176 1113 292 609 857 1017 1539 1111 98 13 471
5 565 -13z"/>
</g>
</svg>
