<?xml version="1.0" standalone="no"?>
<!DOCTYPE svg PUBLIC "-//W3C//DTD SVG 20010904//EN"
 "http://www.w3.org/TR/2001/REC-SVG-20010904/DTD/svg10.dtd">
<svg version="1.0" xmlns="http://www.w3.org/2000/svg"
 width="902.000000pt" height="908.000000pt" viewBox="0 0 902.000000 908.000000"
 preserveAspectRatio="xMidYMid meet">
<metadata>
Created by potrace 1.13, written by Peter Selinger 2001-2015
</metadata>
<g transform="translate(0.000000,908.000000) scale(0.100000,-0.100000)"
fill="#000000" stroke="none">
<path d="M4422 8973 c-38 -18 -81 -65 -116 -125 -13 -24 -300 -630 -636 -1348
-337 -718 -617 -1310 -623 -1316 -7 -6 -626 -104 -1377 -219 -751 -114 -1392
-216 -1425 -226 -153 -47 -205 -167 -133 -309 26 -52 75 -108 262 -299 127
-130 581 -594 1008 -1032 l777 -797 -235 -1438 c-162 -987 -237 -1466 -238
-1524 -2 -146 52 -220 166 -228 38 -3 76 2 110 13 28 9 609 324 1289 701 681
376 1243 684 1249 684 6 0 565 -307 1243 -682 677 -375 1253 -690 1280 -700
58 -22 148 -23 191 -3 65 31 100 109 99 220 -1 39 -105 707 -237 1514 l-236
1443 323 332 c1599 1637 1696 1737 1727 1799 71 141 12 263 -150 311 -25 7
-659 107 -1410 221 -751 115 -1370 212 -1376 216 -5 5 -291 607 -634 1339
-363 774 -639 1350 -660 1377 -64 86 -158 116 -238 76z"/>
</g>
</svg>
